<?xml version="1.0" encoding="UTF-8" standalone="no"?>
<svg width="100px" height="100px" viewBox="0 0 100 100" version="1.1" xmlns="http://www.w3.org/2000/svg" xmlns:xlink="http://www.w3.org/1999/xlink">
    <!-- Generator: Sketch 3.7.2 (28276) - http://www.bohemiancoding.com/sketch -->
    <title>ico-like</title>
    <desc>Created with Sketch.</desc>
    <defs></defs>
    <g id="Page-1" stroke="none" stroke-width="1" fill="none" fill-rule="evenodd">
        <g id="ico-like" fill="#000000">
            <g id="Group" transform="translate(0.000000, 6.000000)">
                <path d="M41.7159091,76.4113636 L82.5136364,76.4113636 C83.1386364,76.2340909 84.8136364,74.6590909 85.3818182,72.5772727 C85.5772727,71.8681818 85.5704545,71.2363636 85.3659091,71.0454545 C84.2818182,70.0227273 83.9909091,68.4136364 84.6431818,67.075 C85.25,65.825 86.5795455,65.0886364 87.9090909,65.1636364 C88.4090909,64.8022727 89.3977273,63.3704545 89.55,61.5318182 C89.6136364,60.7340909 89.5295455,59.675 88.7568182,59.15 C87.4386364,58.2545455 86.9159091,56.5659091 87.4977273,55.0840909 C88.0818182,53.6022727 89.6159091,52.725 91.1863636,52.9590909 L91.1931818,52.9590909 C91.6,52.9590909 92.2159091,52.2272727 92.4568182,51.0840909 C92.6659091,50.0931818 92.5272727,48.8818182 91.8636364,48.5909091 C90.8431818,48.1409091 90.1090909,47.2204545 89.8931818,46.1272727 C89.6772727,45.0340909 90.0113636,43.9022727 90.7886364,43.1 C93.0977273,40.7113636 92.4090909,38.2431818 92.0045455,37.2931818 C91.175,35.3340909 89.3318182,34.0681818 87.3159091,34.0681818 L64.2181818,34.0681818 C63.0386364,34.0681818 61.9431818,33.4590909 61.3227273,32.4568182 C60.7022727,31.4545455 60.6409091,30.2022727 61.1659091,29.1454545 C64.8977273,21.6181818 64.1704545,13.3613636 61.525,9.09772727 C60.625,7.64772727 59.5886364,6.81818182 58.6840909,6.81818182 C56.9204545,6.81818182 56,10.4795455 54.9818182,15.2659091 C54.6295455,16.925 54.2659091,18.6431818 53.7977273,20.2386364 C52.3681818,25.1113636 42.0886364,35.9772727 38.8045455,39.3568182 L38.8045455,75.0204545 C39.4613636,75.4386364 40.6204545,75.9931818 41.7159091,76.4113636 M82.5795455,83.2295455 L41.1181818,83.2295455 C40.7386364,83.2295455 40.3636364,83.1659091 40.0068182,83.0431818 C31.9840909,80.275 31.9840909,77.1113636 31.9840909,76.0704545 L31.9840909,37.9636364 C31.9840909,37.0568182 32.3454545,36.1886364 32.9863636,35.55 C37.575,30.9795455 46.4772727,20.9659091 47.25,18.3204545 C47.6454545,16.9727273 47.9681818,15.4545455 48.3090909,13.8477273 C49.5522727,8.00454545 51.2545455,0 58.6795455,0 C62.0454545,0 65.1113636,1.95454545 67.3159091,5.50454545 C70.2772727,10.2795455 71.8045455,18.6431818 69.2159091,27.25 L87.3113636,27.25 C92.0727273,27.25 96.3772727,30.1477273 98.2772727,34.6318182 C99.7272727,38.0454545 99.5113636,41.7727273 97.7977273,44.9590909 C99.2,46.9477273 99.725,49.6386364 99.125,52.4863636 C98.6295455,54.8386364 97.4863636,56.7727273 95.9477273,58.0590909 C96.5772727,60.0727273 96.5545455,62.4113636 95.8068182,64.8363636 C95.1636364,66.925 93.9318182,69.025 92.25,70.4068182 C92.4863636,72.0409091 92.2454545,73.8568182 91.5113636,75.7068182 C90.025,79.4454545 86.4818182,83.2295455 82.5795455,83.2295455" id="Fill-1"></path>
                <path d="M6.96363636,31.5090909 L6.81818182,79.4318182 L31.8386364,79.5727273 C31.9204545,79.5727273 31.9840909,79.5113636 31.9840909,79.4318182 L31.9840909,31.65 L6.96363636,31.5090909 Z M31.8386364,86.3909091 L6.96363636,86.3909091 C3.125,86.3909091 0,83.2681818 0,79.4318182 L0,31.65 C0,27.8136364 3.125,24.6909091 6.96363636,24.6909091 L31.8363636,24.6909091 C35.675,24.6909091 38.8,27.8136364 38.8,31.65 L38.8,79.4295455 C38.8022727,83.2681818 35.6772727,86.3909091 31.8386364,86.3909091 L31.8386364,86.3909091 Z" id="Fill-3"></path>
            </g>
        </g>
    </g>
</svg>