<svg width="152px" height="54px" viewBox="0 0 152 54" version="1.1" xmlns="http://www.w3.org/2000/svg" xmlns:xlink="http://www.w3.org/1999/xlink">
    <!-- Generator: Sketch 43.1 (39012) - http://www.bohemiancoding.com/sketch -->
    <title>logo-voxpop</title>
    <desc>Created with Sketch.</desc>
    <defs></defs>
    <g id="Logos" stroke="none" stroke-width="1" fill="none" fill-rule="evenodd">
        <g id="logo-voxpop">
            <g id="Group" transform="translate(10.000000, 9.000000)" fill-rule="nonzero">
                <g id="Group-2">
                    <path d="M11.8789044,36.3188152 L14.3548129,36.3188152 C14.9871127,36.3188152 19.9675814,41.8684932 19.9675814,41.8684932 L20.7478066,36.6527699 C20.9624619,36.43941 21.2541131,36.3188152 21.5574303,36.3188152 L28.2560315,36.3188152 C29.2453123,36.3188152 30.0526027,35.5187154 30.0526027,34.5330852 L30.0526027,12.58573 C30.0526027,11.602419 29.2476455,10.8 28.2560315,10.8 L11.8765712,10.8 C10.8872904,10.8 10.08,11.6000998 10.08,12.58573 L10.08,34.5330852 C10.0823332,35.5163963 10.8872904,36.3188152 11.8789044,36.3188152 Z" id="Shape-Copy" fill="#FFCD57" transform="translate(20.066301, 26.334247) scale(-1, -1) rotate(90.000000) translate(-20.066301, -26.334247) "></path>
                    <path d="M1.78435285,16.6852554 L6.01264425,16.6852554 C6.63982923,16.6852554 11.5800103,22.1917808 11.5800103,22.1917808 L12.3539242,17.0166134 C12.5668431,16.8049124 12.856135,16.6852554 13.1569987,16.6852554 L24.1083724,16.6852554 C25.0896508,16.6852554 25.890411,15.8913769 25.890411,14.9134106 L25.890411,1.7718448 C25.890411,0.796179611 25.0919651,0 24.1083724,0 L1.78203852,6.26084867e-15 C0.800760166,6.26084867e-15 0,0.793878513 0,1.7718448 L0,14.9134106 C0.00231433574,15.8890758 0.800760166,16.6852554 1.78435285,16.6852554 Z" id="Shape" fill="#55AC49"></path>
                </g>
            </g>
            <path d="M58.054,35 L63.576,20.326 L59.286,20.326 L55.678,30.908 L52.048,20.326 L47.758,20.326 L53.28,35 L58.054,35 Z M71.76,35.264 C67.272,35.264 63.906,32.14 63.906,27.674 C63.906,23.208 67.272,20.084 71.76,20.084 C76.248,20.084 79.592,23.208 79.592,27.674 C79.592,32.14 76.248,35.264 71.76,35.264 Z M71.76,31.92 C74.18,31.92 75.742,30.05 75.742,27.674 C75.742,25.276 74.18,23.428 71.76,23.428 C69.34,23.428 67.756,25.276 67.756,27.674 C67.756,30.05 69.34,31.92 71.76,31.92 Z M95.278,35 L90.174,27.454 L94.948,20.326 L90.46,20.326 L87.622,24.924 L84.762,20.326 L80.296,20.326 L85.07,27.476 L79.966,35 L84.432,35 L87.622,30.072 L90.812,35 L95.278,35 Z M100.162,35 L96.378,35 L96.378,20.326 L103.726,20.326 C107.026,20.326 108.83,22.548 108.83,25.21 C108.83,27.85 107.026,30.072 103.726,30.072 L100.162,30.072 L100.162,35 Z M103.154,26.772 C104.166,26.772 104.98,26.2 104.98,25.21 C104.98,24.198 104.166,23.626 103.154,23.626 L100.162,23.626 L100.162,26.772 L103.154,26.772 Z M117.63,35.264 C113.142,35.264 109.776,32.14 109.776,27.674 C109.776,23.208 113.142,20.084 117.63,20.084 C122.118,20.084 125.462,23.208 125.462,27.674 C125.462,32.14 122.118,35.264 117.63,35.264 Z M117.63,31.92 C120.05,31.92 121.612,30.05 121.612,27.674 C121.612,25.276 120.05,23.428 117.63,23.428 C115.21,23.428 113.626,25.276 113.626,27.674 C113.626,30.05 115.21,31.92 117.63,31.92 Z M131.16,35 L127.376,35 L127.376,20.326 L134.724,20.326 C138.024,20.326 139.828,22.548 139.828,25.21 C139.828,27.85 138.024,30.072 134.724,30.072 L131.16,30.072 L131.16,35 Z M134.152,26.772 C135.164,26.772 135.978,26.2 135.978,25.21 C135.978,24.198 135.164,23.626 134.152,23.626 L131.16,23.626 L131.16,26.772 L134.152,26.772 Z" id="VOXPOP" fill="#FFFFFF"></path>
        </g>
    </g>
</svg>